<svg width="60" height="30" viewBox="0 0 60 30" fill="none" xmlns="http://www.w3.org/2000/svg">
<rect width="60" height="30" rx="3" fill="#787878"/>
<path d="M14.06 14.4L16.832 10.914V10.2H10.532V11.096H15.544L12.828 14.498V15.24H13.528C15.348 15.24 16.174 16.01 16.174 17.186C16.174 18.404 15.278 19.16 13.654 19.16C12.38 19.16 11.246 18.684 10.616 18.026L10.126 18.824C10.882 19.594 12.24 20.084 13.654 20.084C16.02 20.084 17.21 18.824 17.21 17.186C17.21 15.618 16.16 14.512 14.06 14.4ZM19.3863 20.07C19.7923 20.07 20.1423 19.734 20.1423 19.3C20.1423 18.866 19.7923 18.544 19.3863 18.544C18.9803 18.544 18.6443 18.866 18.6443 19.3C18.6443 19.734 18.9803 20.07 19.3863 20.07ZM29.7494 16.528H27.7894V14.26H26.8094V16.528H22.5534L27.5654 10.2H26.4454L21.2514 16.696V17.424H26.7814V20H27.7894V17.424H29.7494V16.528Z" fill="white"/>
<path fill-rule="evenodd" clip-rule="evenodd" d="M43.5 9L45.354 12.9495L49.5 13.5868L46.5 16.6593L47.208 21L43.5 18.9495L39.792 21L40.5 16.6593L37.5 13.5868L41.646 12.9495L43.5 9V9Z" stroke="white" stroke-linecap="round" stroke-linejoin="round"/>
</svg>
